<svg width="51" height="50" viewBox="0 0 51 50" fill="none" xmlns="http://www.w3.org/2000/svg">
<g clip-path="url(#clip0_1_350)">
<path d="M48.9081 9.84456C48.9081 9.54456 48.7889 9.25689 48.5768 9.04467C44.3277 4.79558 38.9595 2.07352 33.1372 1.14942C33.1059 1.14173 33.0743 1.13449 33.042 1.1294C33.012 1.12465 32.9824 1.12227 32.9526 1.1199C31.5455 0.906097 30.1126 0.796143 28.6627 0.796143C27.2087 0.796143 25.7718 0.906889 24.3609 1.12182C24.3178 1.12374 24.2743 1.12736 24.2307 1.13426C24.1861 1.14139 24.1428 1.15157 24.1003 1.16356C21.225 1.62929 18.4617 2.53347 15.8902 3.84467C15.8775 3.85055 15.8647 3.85531 15.8521 3.86164C15.8352 3.87024 15.8196 3.88042 15.8033 3.88969C13.2828 5.18607 10.9485 6.87318 8.87591 8.92035C8.82364 8.95723 8.7733 8.99795 8.72647 9.04467C8.67896 9.09207 8.63767 9.14331 8.60045 9.19637C6.55486 11.2723 4.86957 13.6096 3.57591 16.1332C3.56776 16.1476 3.55894 16.1612 3.55136 16.176C3.54581 16.1869 3.54174 16.1981 3.53665 16.209C2.22704 18.7834 1.32511 21.5496 0.86233 24.4278C0.850453 24.4701 0.840272 24.5132 0.833258 24.5576C0.826357 24.6009 0.822738 24.644 0.820814 24.6868C0.608937 26.0881 0.5 27.5149 0.5 28.9587C0.5 30.4184 0.611652 31.861 0.828394 33.2773C0.830769 33.3077 0.833371 33.3381 0.838235 33.3688C0.843891 33.4042 0.851131 33.4389 0.859842 33.473C1.79005 39.2799 4.50939 44.6334 8.74876 48.8728C8.96968 49.0937 9.25916 49.2042 9.54864 49.2042C9.83812 49.2042 10.1277 49.0937 10.3485 48.8728L48.5769 10.6446C48.789 10.4323 48.9081 10.1447 48.9081 9.84456ZM28.6628 27.3589L26.745 25.4412C26.3033 24.9995 25.587 24.9995 25.1452 25.4412C24.7035 25.8829 24.7035 26.5992 25.1452 27.0411L27.063 28.9587L9.56584 46.4559C8.2155 44.9836 7.06787 43.3911 6.12036 41.7153L7.47443 41.0252C8.03111 40.7415 8.25238 40.0604 7.96878 39.5037C7.68507 38.9469 7.00373 38.7259 6.44729 39.0094L5.09355 39.6992C4.27738 37.9029 3.67805 36.0318 3.29287 34.1254L4.77873 33.89C5.39581 33.7923 5.81674 33.2129 5.71912 32.5958C5.62127 31.9788 5.04219 31.5573 4.42489 31.6554L2.94118 31.8904C2.72149 29.9458 2.72002 27.981 2.93891 26.0364L4.4198 26.2709C4.47975 26.2804 4.53937 26.2849 4.59819 26.2849C5.14491 26.2849 5.62579 25.8877 5.71414 25.3305C5.81188 24.7135 5.39084 24.134 4.77376 24.0363L3.29061 23.8013C3.67489 21.8956 4.27466 20.0252 5.08971 18.2293L6.43315 18.9138C6.59762 18.9976 6.77296 19.0373 6.94581 19.0373C7.35769 19.0373 7.75486 18.8116 7.95464 18.4194C8.23824 17.8628 8.01686 17.1815 7.46018 16.898L6.11346 16.2119C7.05962 14.5368 8.20781 12.9461 9.55633 11.4742L10.6213 12.539C10.8422 12.7598 11.1317 12.8704 11.4212 12.8704C11.7106 12.8704 12.0002 12.7598 12.221 12.539C12.6628 12.0973 12.6628 11.381 12.221 10.9391L11.1552 9.87329C12.6132 8.53302 14.1989 7.37646 15.885 6.41718L16.5744 7.77035C16.7743 8.16255 17.1714 8.38822 17.5833 8.38822C17.756 8.38822 17.9314 8.34852 18.0958 8.26469C18.6525 7.9811 18.8739 7.29988 18.5903 6.7432L17.8997 5.38766C19.6769 4.5751 21.544 3.96673 23.4725 3.57657L23.7098 5.07465C23.7981 5.63178 24.279 6.02906 24.8258 6.02906C24.8846 6.02906 24.9442 6.02454 25.0042 6.01503C25.6213 5.9173 26.0422 5.33788 25.9446 4.7208L25.7078 3.22612C26.6821 3.11617 27.6682 3.05859 28.6631 3.05859C29.6402 3.05859 30.6088 3.11345 31.5659 3.21956L31.329 4.71594C31.2312 5.33302 31.6523 5.91243 32.2693 6.01017C32.3293 6.01967 32.3889 6.0242 32.4477 6.0242C32.9945 6.0242 33.4753 5.62691 33.5637 5.06979L33.8017 3.56673C35.7318 3.95327 37.6011 4.557 39.3804 5.36628L38.6861 6.72895C38.4025 7.28562 38.6238 7.96684 39.1805 8.25044C39.345 8.33426 39.5204 8.37397 39.6931 8.37397C40.105 8.37397 40.5022 8.14829 40.7019 7.7561L41.3966 6.39252C43.0948 7.35429 44.6929 8.5139 46.1604 9.86141L28.6628 27.3589Z" fill="white"/>
<path d="M36.1946 9.91851C33.792 8.97179 31.2578 8.4917 28.6627 8.4917C23.1874 8.4917 18.0455 10.6184 14.1839 14.48C8.41661 20.2472 6.62612 28.8869 9.62238 36.4907C9.7622 36.8454 10.0713 37.1058 10.4446 37.1836C10.5211 37.1995 10.5982 37.2072 10.6749 37.2072C10.9718 37.2072 11.2605 37.0902 11.4748 36.8759L36.5796 11.7709C36.8493 11.5012 36.9649 11.1139 36.8873 10.7407C36.8097 10.3675 36.5493 10.0582 36.1946 9.91851ZM11.1602 33.9909C9.34456 27.6602 11.0718 20.7918 15.7838 16.0798C19.218 12.6455 23.7918 10.7541 28.6628 10.7541C30.3789 10.7541 32.0649 10.9899 33.6947 11.4565L11.1602 33.9909Z" fill="white"/>
<path d="M49.3688 46.9418H33.0484C32.8097 43.6483 31.5311 40.5613 29.3711 38.0638L50.1687 17.2663C50.6104 16.8246 50.6104 16.1083 50.1687 15.6664C49.7269 15.2248 49.0106 15.2248 48.5688 15.6664L27.0086 37.2267C27.0058 37.2294 27.0027 37.2318 26.9999 37.2345C26.9972 37.2372 26.9948 37.2404 26.9921 37.2431L16.9622 47.273C16.6387 47.5965 16.542 48.0831 16.7171 48.5058C16.8922 48.9284 17.3047 49.2041 17.7622 49.2041H49.3688C49.9936 49.2041 50.5 48.6975 50.5 48.0729C50.5 47.4482 49.9936 46.9418 49.3688 46.9418ZM27.7657 39.6693C29.505 41.7326 30.549 44.253 30.7781 46.9418H20.4932L27.7657 39.6693Z" fill="white"/>
</g>
<defs>
<clipPath id="clip0_1_350">
<rect width="50" height="50" fill="white" transform="translate(0.5)"/>
</clipPath>
</defs>
</svg>
